<svg xmlns="http://www.w3.org/2000/svg" width="24px" height="24px" viewBox="0 0 24 24" fill="#000000">
  <path
     d="M18 4V3c0-.55-.45-1-1-1H5c-.55 0-1 .45-1 1v4c0 .55.45 1 1 1h12c.55 0 1-.45 1-1V6h1v4H9v11c0 .55.45 1 1 1h2c.55 0 1-.45 1-1v-9h8V4h-3z"/>
  <path
     d="m 20.172054,17.437795 c 0.0139,-0.104236 0.02085,-0.211947 0.02085,-0.326607 0,-0.111185 -0.0069,-0.222371 -0.02432,-0.326607 l 0.705333,-0.548979 c 0.06254,-0.04864 0.07991,-0.142456 0.04169,-0.211947 l -0.667113,-1.15355 c -0.04169,-0.07644 -0.128558,-0.100762 -0.204998,-0.07644 l -0.830416,0.333557 c -0.173728,-0.132033 -0.357879,-0.243219 -0.562877,-0.326608 l -0.125084,-0.882535 c -0.0139,-0.08339 -0.08339,-0.142456 -0.166778,-0.142456 h -1.334226 c -0.08339,0 -0.149406,0.05907 -0.163304,0.142456 l -0.125083,0.882535 c -0.204999,0.08339 -0.392624,0.19805 -0.562877,0.326608 l -0.830417,-0.333557 c -0.07644,-0.0278 -0.163303,0 -0.204998,0.07644 l -0.663638,1.15355 c -0.0417,0.07296 -0.0278,0.163304 0.04169,0.211947 l 0.705333,0.548979 c -0.01737,0.104236 -0.03127,0.218896 -0.03127,0.326607 0,0.107711 0.0069,0.222371 0.02432,0.326607 l -0.705333,0.548979 c -0.06254,0.04864 -0.07991,0.142456 -0.04169,0.211947 l 0.667113,1.15355 c 0.04169,0.07644 0.128558,0.100762 0.204998,0.07644 l 0.830416,-0.333557 c 0.173728,0.132033 0.357879,0.243219 0.562877,0.326608 l 0.125084,0.882535 c 0.01737,0.08339 0.08339,0.142456 0.166778,0.142456 h 1.334226 c 0.08339,0 0.15288,-0.05907 0.163304,-0.142456 l 0.125083,-0.882535 c 0.204999,-0.08339 0.392624,-0.194575 0.562877,-0.326608 l 0.830417,0.333557 c 0.07644,0.0278 0.163303,0 0.204998,-0.07644 l 0.667113,-1.15355 c 0.04169,-0.07644 0.02432,-0.163304 -0.0417,-0.211947 z m -2.480826,0.92423 c -0.68796,0 -1.250837,-0.562877 -1.250837,-1.250837 0,-0.68796 0.562877,-1.250837 1.250837,-1.250837 0.68796,0 1.250837,0.562877 1.250837,1.250837 0,0.68796 -0.562877,1.250837 -1.250837,1.250837 z"
     style="stroke-width:0.347455" />
</svg>
