<?xml version="1.0" encoding="UTF-8"?>
<svg width="32" height="32" version="1.1" viewBox="0 0 8.4667 8.4667" xmlns="http://www.w3.org/2000/svg">
 <defs>
  <linearGradient id="linearGradient1375" x1="66.152" x2="71.374" y1="93.947" y2="93.947" gradientTransform="translate(-64.715 -89.557)" gradientUnits="userSpaceOnUse">
   <stop style="stop-color:#0b0b0b" offset="0"/>
   <stop style="stop-color:#0e1e5b" offset=".5312"/>
   <stop style="stop-color:#0b0b0b" offset="1"/>
  </linearGradient>
  <filter id="filter2379" style="color-interpolation-filters:sRGB">
   <feFlood flood-color="rgb(0,0,0)" result="flood"/>
   <feComposite in="flood" in2="SourceGraphic" operator="in" result="composite1"/>
   <feGaussianBlur in="composite1" result="blur" stdDeviation="0.1"/>
   <feOffset dx="0" dy="0" result="offset"/>
   <feComposite in="SourceGraphic" in2="offset" result="composite2"/>
  </filter>
  <linearGradient id="linearGradient2407" x1="-249.63" x2="-235.67" y1="96.578" y2="44.486" gradientTransform="matrix(-.10147 .3787 .3787 .10147 -47.028 88.154)" gradientUnits="userSpaceOnUse">
   <stop style="stop-color:#643907" offset="0"/>
   <stop style="stop-color:#643907;stop-opacity:.49412" offset=".50371"/>
   <stop style="stop-color:#643907" offset="1"/>
  </linearGradient>
  <filter id="filter2617" style="color-interpolation-filters:sRGB">
   <feFlood flood-color="rgb(0,0,0)" result="flood"/>
   <feComposite in="flood" in2="SourceGraphic" operator="in" result="composite1"/>
   <feGaussianBlur in="composite1" result="blur" stdDeviation="0.2"/>
   <feOffset dx="0" dy="0" result="offset"/>
   <feComposite in="SourceGraphic" in2="offset" result="composite2"/>
  </filter>
 </defs>
 <path d="m4.2333 0.71755-3.7197 2.7026 1.4208 4.3728 4.5979-1.59e-5 1.4207-4.3727z" style="fill:#e5e5e5;stroke-width:.39206"/>
 <path d="m4.2333 0.71755-3.7197 2.7026 1.4208 4.3728 4.5979-1.6e-5 1.4207-4.3727z" style="fill:url(#linearGradient2407);stroke-width:.39206"/>
 <path d="m3.9436 3.339v0.79375h-0.79375l-2e-5 0.52917h0.79377l-2e-5 0.79375 0.52917 1.27e-4 2e-5 -0.79388 0.79373 1.27e-4 2e-5 -0.52917-0.79375-1.27e-4v-0.79362z" filter="drop-shadow(0 0 10px #000000)" style="fill:#091442;filter:url(#filter2379)"/>
 <path d="m4.4726 3.339-0.07939 0.07937v0.79375l0.07939-0.0795z" style="fill:#112063"/>
 <path d="m4.0226 3.419-0.07935-0.0795v0.79375l0.07935 0.0795z" style="fill:#112063"/>
 <path d="m3.2286 4.213-0.07935-0.0795-2e-5 0.52917 0.07937-0.07925z" style="fill:#3562a6"/>
 <path d="m5.1866 4.213 0.0794-0.07937-2e-5 0.52917-0.07938-0.07937z" style="fill:#3562a6"/>
 <path d="m4.3926 5.377 0.07937 0.07937-0.52917-1.27e-4 0.07937-0.07925z" style="fill:#6594c0"/>
 <path d="m4.0226 4.583-0.07939 0.07937v0.79375l0.07939-0.0795z" style="fill:#112063"/>
 <path d="m4.4726 4.662-0.07935-0.0795v0.79375l0.07935 0.0795z" style="fill:#112063"/>
 <path d="m4.3926 3.419 0.07937-0.07937-0.52917 1.27e-4 0.07937 0.07925z" style="fill:#6594c0"/>
 <path d="m4.0226 3.419v0.79375h-0.79375v0.37042h0.79375v0.79375l0.37042 5e-6v-0.79375l0.79375-3e-6v-0.37042l-0.79375 2e-6v-0.79375z" style="fill:url(#linearGradient1375)"/>
 <path transform="matrix(-.10147 .3787 .3787 .10147 -47.028 88.154)" d="m-249.26 68.575 9.1139-7.3803 9.8354 6.3872-3.0353 11.328-11.711 0.61376z" style="fill:none;filter:url(#filter2617);mix-blend-mode:normal;stroke-linecap:round;stroke-width:1.3497;stroke:#091442"/>
 <path d="m4.2333 0.71755-3.7197 2.7026 1.4208 4.3728 4.5979-1.59e-5 1.4207-4.3727z" style="fill:none;stroke-linecap:round;stroke-width:.37042;stroke:#0e1e5b"/>
</svg>
