<svg xmlns="http://www.w3.org/2000/svg"
   x="0px"
   y="0px"
   width="24"
   height="24"
   viewBox="0 0 24 24"
   stroke="var(--light)">

   <path d="m 1.1765938,7.9880074 c 0.1272687,0.4987643 0.5754282,0.8469914 1.0904617,0.8469914 0.0909,0 0.1818461,-0.011162 0.2706645,-0.033154 L 4.4019145,8.3388356 C 4.6131301,8.2881362 4.6679914,8.4525308 4.6679914,8.5467407 V 20.367398 c 0,0.617142 0.5027371,1.119737 1.1202097,1.119737 H 18.220467 c 0.617803,0 1.120824,-0.502595 1.120824,-1.119737 V 8.5494838 c 0,-0.081771 0.02351,-0.2187828 0.184069,-0.2187828 0.02497,0 0.05344,0.00378 0.0813,0.010877 l 1.855682,0.4606453 c 0.08848,0.021992 0.179859,0.033201 0.270854,0.033201 0.515127,0 0.963334,-0.3482742 1.090177,-0.8469913 L 23.465486,5.4716738 C 23.539546,5.1812403 23.495986,4.880071 23.342283,4.623169 23.189002,4.36674 22.944491,4.185556 22.653727,4.1134324 L 16.767353,2.6520426 C 16.413166,2.5619476 16.047914,2.5158827 15.679682,2.5158827 l -1.44025,-0.00237 -0.06876,0.2844745 c -0.24376,1.0146531 -1.142112,1.7231197 -2.184808,1.7231197 -1.042883,0 -1.941424,-0.7084193 -2.1848945,-1.7231158 L 9.7322511,2.5135179 h -1.351147 l -0.066355,0.00275 c -0.3651108,0 -0.7300799,0.046065 -1.0819013,0.1354032 L 1.3466164,4.1133851 C 1.0555208,4.1855088 0.81129368,4.3666928 0.65758762,4.6231217 0.50425992,4.8796453 0.46037093,5.1811929 0.53467007,5.4716265 Z"
   style="fill:none;stroke-width:1.5;stroke-miterlimit:4;stroke-dasharray:none;stroke-opacity:1" />

   <g transform="translate(0,1)" fill="var(--light)">

         <path d="M 8.8720302,14.082591 H 10.196815 V 7.5059415 H 9.1170902 c 0,0.057342 -0.01663,0.1452299 -0.04994,0.2631212 C 9.0098086,7.9654167 8.925671,8.1225394 8.813652,8.2408255 8.6510024,8.4131965 8.4394987,8.5283738 8.1803253,8.5857157 8.0176757,8.6219861 7.7327922,8.6491766 7.325428,8.6673859 v 0.8798178 h 1.5466515 v 4.5353873 z"
         id="path4"
         style="stroke-width:0" />

         <path d="m 14.405423,14.246079 c 0.837724,0 1.425256,-0.292878 1.762251,-0.87962 0.337586,-0.586743 0.505862,-1.422444 0.505862,-2.508436 0,-1.085745 -0.168276,-1.9229759 -0.505862,-2.5125807 -0.336205,-0.5896047 -0.924527,-0.8844565 -1.762251,-0.8844565 -0.837478,0 -1.424615,0.2948518 -1.762202,0.8844565 -0.336748,0.5896048 -0.505369,1.4271811 -0.505369,2.5125807 0,1.085992 0.168621,1.921693 0.505369,2.508436 0.337587,0.586792 0.924724,0.87962 1.762202,0.87962 z M 13.643496,9.0980915 c 0.124208,-0.3811607 0.378743,-0.5711982 0.761927,-0.5711982 0.384466,0 0.63604,0.1904323 0.755264,0.5711982 0.119471,0.3814073 0.179379,0.9677055 0.179379,1.7599315 0,0.755906 -0.05991,1.334556 -0.179379,1.735209 -0.119668,0.400258 -0.370798,0.601004 -0.755264,0.601004 -0.383234,0 -0.637324,-0.200697 -0.761927,-0.601004 -0.12401,-0.400653 -0.185695,-0.978957 -0.185695,-1.735209 0,-0.792176 0.06169,-1.3785242 0.185695,-1.7599315 z"
         id="path6"
         style="stroke-width:0" />
   </g>

</svg>